<?xml version="1.0" encoding="iso-8859-1"?>
<!-- Generator: Adobe Illustrator 19.0.0, SVG Export Plug-In . SVG Version: 6.00 Build 0)  -->
<svg version="1.1" id="Capa_1" xmlns="http://www.w3.org/2000/svg" xmlns:xlink="http://www.w3.org/1999/xlink" x="0px" y="0px"
	 viewBox="0 0 512 512" style="enable-background:new 0 0 512 512;" xml:space="preserve">
<path style="fill:#FF5233;" d="M278.5,0C290.926,0,301,10.074,301,22.5V75l30,132H226l30-184.5C256,10.074,266.074,0,278.5,0z"/>
<path style="fill:#FF6E2E;" d="M233.5,0C221.074,0,211,10.074,211,22.5V75l-30,132h75V22.5C256,10.074,245.926,0,233.5,0z"/>
<path style="fill:#FF5233;" d="M211,217h-30V75c0-8.271-6.729-15-15-15s-15,6.729-15,15v30h-30V75c0-24.813,20.187-45,45-45
	s45,20.187,45,45V217z"/>
<path style="fill:#FF364E;" d="M331,217h-30V75c0-24.813,20.187-45,45-45s45,20.187,45,45v30h-30V75c0-8.271-6.729-15-15-15
	s-15,6.729-15,15V217z"/>
<polygon style="fill:#462300;" points="374.257,217.628 206,217.628 256,407 512,347 "/>
<g>
	<polygon style="fill:#742F0D;" points="137.743,217.628 0,347 256,407 256,272 	"/>
	<polygon style="fill:#742F0D;" points="512,347 421,347 186,452 256,512 512,512 	"/>
</g>
<polygon style="fill:#A33B1A;" points="0,347 0,512 256,512 91,347 "/>
<path style="fill:#FF364E;" d="M226,407l30,105c90.981,0,165-74.019,165-165h-60L226,407z"/>
<g>
	<path style="fill:#FF5233;" d="M91,347c0,90.981,74.019,165,165,165V397l-105-50H91z"/>
	<path style="fill:#FF5233;" d="M256,347l-40,45l40,60c57.897,0,105-47.103,105-105H256z"/>
</g>
<path style="fill:#FF6E2E;" d="M151,347c0,57.897,47.103,105,105,105V347H151z"/>
<rect x="391" y="135" style="fill:#FF364E;" width="30" height="30"/>
<rect x="91" y="135" style="fill:#FF5233;" width="30" height="30"/>
<path style="fill:#FF6E2E;" d="M374.257,217.628L331,177h-75l-50,47.5L256,392c24.813,0,45-20.187,45-45v-81.63
	C329.794,256.677,355.106,239.88,374.257,217.628z"/>
<path style="fill:#FF8B2A;" d="M181,177l-43.257,40.628c19.15,22.252,44.463,39.049,73.257,47.742V347c0,24.813,20.187,45,45,45V177
	H181z"/>
<g>
</g>
<g>
</g>
<g>
</g>
<g>
</g>
<g>
</g>
<g>
</g>
<g>
</g>
<g>
</g>
<g>
</g>
<g>
</g>
<g>
</g>
<g>
</g>
<g>
</g>
<g>
</g>
<g>
</g>
</svg>
